# xmcd
#
# Track frame offsets:
#	150
#	21048
#	41918
#	61633
#	90893
#	117080
#	138908
#	159283
#	186930
#	203410
#	235125
#	255525
#
# Disc length: 3728 seconds
#
# Revision: 1
# Processed by: cddbd v1.5PL3 Copyright (c) Steve Scherf et al.
# Submitted via: CDex 1.50Beta5
#
DISCID=8a0e8e0c
DTITLE=auto-mod - REQUIEM
DYEAR=1900
DGENRE=
TTITLE0=Messina
TTITLE1=Feature Sex
TTITLE2=Friendo
TTITLE3=破壊へ
TTITLE4=Identical Nightmare
TTITLE5=バンピレラ
TTITLE6=乾いた夜
TTITLE7=異国の幻想
TTITLE8=戦場
TTITLE9=Requiem
TTITLE10=第三の敵
TTITLE11=Dancin’Rhythm
EXTD=
EXTT0=
EXTT1=
EXTT2=
EXTT3=
EXTT4=
EXTT5=
EXTT6=
EXTT7=
EXTT8=
EXTT9=
EXTT10=
EXTT11=
PLAYORDER=
